# xmcd
#
# Track frame offsets:
#	150
#	14853
#	31060
#	48688
#	64964
#	80775
#	95102
#	110405
#	130281
#	151057
#	168347
#	186498
#	205926
#	223852
#	242904
#	272907
#
# Disc length: 3653 seconds
#
# Revision: 1
# Processed by: cddbd v1.5.2PL0 Copyright (c) Steve Scherf et al.
# Submitted via: audiograbber 1.83.01
#
DISCID=f80e4310
DTITLE=Various Artist - CB60321
DYEAR=2004
DGENRE=Country
TTITLE0=Scotty Emerick - Where's My Beer
TTITLE1=Shania Twain - It Only Hurts When I'm Breathing
TTITLE2=Trini Triggs - Heaven On Earth
TTITLE3=SHeDaisy - Passenger Seat
TTITLE4=Jeff Bates - I Wanna Make You Cry
TTITLE5=Amy Dalley - Men Don't Change
TTITLE6=David Lee Murphy - Loco
TTITLE7=Dolly Parton - Welcome Home
TTITLE8=John Michael Montgomery - Letters From Home
TTITLE9=Gretchen Wilson - Redneck Woman
TTITLE10=Colt Prather - I Won't go On And On
TTITLE11=Sherrie Austin - Drivin' Into The Sun
TTITLE12=John Berry - Will You Marry Me
TTITLE13=Julie Roberts - Break Down Here
TTITLE14=Andy Griggs - She Thinks She Needs Me
TTITLE15=Data - Data
EXTD=Chartbuster Country Hits Of April 2004
EXTT0=
EXTT1=
EXTT2=
EXTT3=
EXTT4=
EXTT5=
EXTT6=
EXTT7=
EXTT8=
EXTT9=
EXTT10=
EXTT11=
EXTT12=
EXTT13=
EXTT14=
EXTT15=
PLAYORDER=
